<?xml version="1.0" encoding="UTF-8" standalone="no"?>
<!DOCTYPE svg PUBLIC "-//W3C//DTD SVG 1.1//EN"
 "http://www.w3.org/Graphics/SVG/1.1/DTD/svg11.dtd">
<!-- Generated by graphviz version 15.0.0 (20260523.1842)
 -->
<!-- Title: task Pages: 1 -->
<svg width="1234pt" height="391pt"
 viewBox="0.00 0.00 1234.00 391.00" xmlns="http://www.w3.org/2000/svg" xmlns:xlink="http://www.w3.org/1999/xlink">
<g id="graph0" class="graph" transform="scale(1 1) rotate(0) translate(28.8 362.38)">
<title>task</title>
<polygon fill="white" stroke="none" points="-28.8,28.8 -28.8,-362.38 1205.18,-362.38 1205.18,28.8 -28.8,28.8"/>
<g id="clust1" class="cluster">
<title>cluster_0</title>
<polygon fill="none" stroke="#c8d0cc" stroke-dasharray="5,2" points="103.01,-105.25 103.01,-289.5 385.01,-289.5 385.01,-105.25 103.01,-105.25"/>
<text xml:space="preserve" text-anchor="middle" x="123.01" y="-275.05" font-family="Helvetica,sans-Serif" font-size="11.00" fill="#55606a">open</text>
</g>
<g id="clust2" class="cluster">
<title>cluster_1</title>
<polygon fill="none" stroke="#c8d0cc" stroke-dasharray="5,2" points="393.01,-8 393.01,-181.25 771.01,-181.25 771.01,-8 393.01,-8"/>
<text xml:space="preserve" text-anchor="middle" x="458.01" y="-166.8" font-family="Helvetica,sans-Serif" font-size="11.00" fill="#55606a">settled: the task&#39;s status</text>
</g>
<!-- start -->
<g id="node1" class="node">
<title>start</title>
<ellipse fill="#e4ebe7" stroke="#1d2329" cx="342.01" cy="-328.54" rx="5.04" ry="5.04"/>
</g>
<!-- Pending -->
<g id="node2" class="node">
<title>Pending</title>
<path fill="#e4ebe7" stroke="#2b6f62" d="M365.47,-261.5C365.47,-261.5 318.55,-261.5 318.55,-261.5 312.55,-261.5 306.55,-255.5 306.55,-249.5 306.55,-249.5 306.55,-237.5 306.55,-237.5 306.55,-231.5 312.55,-225.5 318.55,-225.5 318.55,-225.5 365.47,-225.5 365.47,-225.5 371.47,-225.5 377.47,-231.5 377.47,-237.5 377.47,-237.5 377.47,-249.5 377.47,-249.5 377.47,-255.5 371.47,-261.5 365.47,-261.5"/>
<text xml:space="preserve" text-anchor="middle" x="342.01" y="-238.47" font-family="Helvetica,sans-Serif" font-size="12.00" fill="#1d2329">Pending</text>
</g>
<!-- start&#45;&gt;Pending -->
<g id="edge1" class="edge">
<title>start&#45;&gt;Pending</title>
<path fill="none" stroke="#55606a" d="M342.01,-323.08C342.01,-313.44 342.01,-290.03 342.01,-271.26"/>
<polygon fill="#55606a" stroke="#55606a" points="344.81,-271.47 342.01,-263.47 339.21,-271.47 344.81,-271.47"/>
</g>
<!-- Running -->
<g id="node3" class="node">
<title>Running</title>
<path fill="#e4ebe7" stroke="#2b6f62" d="M278.84,-153.25C278.84,-153.25 231.17,-153.25 231.17,-153.25 225.17,-153.25 219.17,-147.25 219.17,-141.25 219.17,-141.25 219.17,-129.25 219.17,-129.25 219.17,-123.25 225.17,-117.25 231.17,-117.25 231.17,-117.25 278.84,-117.25 278.84,-117.25 284.84,-117.25 290.84,-123.25 290.84,-129.25 290.84,-129.25 290.84,-141.25 290.84,-141.25 290.84,-147.25 284.84,-153.25 278.84,-153.25"/>
<text xml:space="preserve" text-anchor="middle" x="255.01" y="-130.22" font-family="Helvetica,sans-Serif" font-size="12.00" fill="#1d2329">Running</text>
</g>
<!-- Pending&#45;&gt;Running -->
<g id="edge2" class="edge">
<title>Pending&#45;&gt;Running</title>
<path fill="none" stroke="#55606a" d="M306.15,-239.55C280.21,-235.33 246.83,-225.12 229.76,-200.5 221.58,-188.71 226.58,-173.88 234.21,-161.45"/>
<polygon fill="#55606a" stroke="#55606a" points="236.47,-163.12 238.65,-154.93 231.84,-159.97 236.47,-163.12"/>
<text xml:space="preserve" text-anchor="middle" x="253.38" y="-191" font-family="Helvetica,sans-Serif" font-size="10.00" fill="#55606a">dispatched</text>
</g>
<!-- Fanout -->
<g id="node4" class="node">
<title>Fanout</title>
<path fill="#e4ebe7" stroke="#2b6f62" d="M166.72,-153.25C166.72,-153.25 127.3,-153.25 127.3,-153.25 121.3,-153.25 115.3,-147.25 115.3,-141.25 115.3,-141.25 115.3,-129.25 115.3,-129.25 115.3,-123.25 121.3,-117.25 127.3,-117.25 127.3,-117.25 166.72,-117.25 166.72,-117.25 172.72,-117.25 178.72,-123.25 178.72,-129.25 178.72,-129.25 178.72,-141.25 178.72,-141.25 178.72,-147.25 172.72,-153.25 166.72,-153.25"/>
<path fill="none" stroke="#2b6f62" d="M170.72,-157.25C170.72,-157.25 123.3,-157.25 123.3,-157.25 117.3,-157.25 111.3,-151.25 111.3,-145.25 111.3,-145.25 111.3,-125.25 111.3,-125.25 111.3,-119.25 117.3,-113.25 123.3,-113.25 123.3,-113.25 170.72,-113.25 170.72,-113.25 176.72,-113.25 182.72,-119.25 182.72,-125.25 182.72,-125.25 182.72,-145.25 182.72,-145.25 182.72,-151.25 176.72,-157.25 170.72,-157.25"/>
<text xml:space="preserve" text-anchor="middle" x="147.01" y="-130.22" font-family="Helvetica,sans-Serif" font-size="12.00" fill="#1d2329">Fanout</text>
</g>
<!-- Pending&#45;&gt;Fanout -->
<g id="edge3" class="edge">
<title>Pending&#45;&gt;Fanout</title>
<path fill="none" stroke="#55606a" d="M306.21,-243C268.25,-241.61 208.71,-233.72 171.26,-200.5 161.45,-191.8 155.59,-178.72 152.1,-166.63"/>
<polygon fill="#55606a" stroke="#55606a" points="154.88,-166.21 150.23,-159.13 149.45,-167.57 154.88,-166.21"/>
<text xml:space="preserve" text-anchor="middle" x="194.13" y="-191" font-family="Helvetica,sans-Serif" font-size="10.00" fill="#55606a">fanned out</text>
</g>
<!-- Fail -->
<g id="node6" class="node">
<title>Fail</title>
<path fill="#f5ebe1" stroke="#8a4b1c" d="M645.01,-52C645.01,-52 615.01,-52 615.01,-52 609.01,-52 603.01,-46 603.01,-40 603.01,-40 603.01,-28 603.01,-28 603.01,-22 609.01,-16 615.01,-16 615.01,-16 645.01,-16 645.01,-16 651.01,-16 657.01,-22 657.01,-28 657.01,-28 657.01,-40 657.01,-40 657.01,-46 651.01,-52 645.01,-52"/>
<text xml:space="preserve" text-anchor="middle" x="630.01" y="-28.98" font-family="Helvetica,sans-Serif" font-size="12.00" fill="#1d2329">Fail</text>
</g>
<!-- Pending&#45;&gt;Fail -->
<g id="edge12" class="edge">
<title>Pending&#45;&gt;Fail</title>
<path fill="none" stroke="#8a4b1c" d="M337.09,-225.11C334.97,-213.58 334.61,-198.86 343.01,-189.25 358.4,-171.65 374.07,-191.67 395.01,-181.25 438.41,-159.65 429.01,-125.07 473.26,-105.25 521.39,-83.68 674.07,-126.86 710.01,-88.25 713.41,-84.59 712.59,-81.28 710.01,-77 704.82,-68.42 684.89,-57.95 666.21,-49.6"/>
<polygon fill="#8a4b1c" stroke="#8a4b1c" points="667.34,-47.04 658.89,-46.42 665.11,-52.18 667.34,-47.04"/>
<text xml:space="preserve" text-anchor="middle" x="515.63" y="-131.38" font-family="Helvetica,sans-Serif" font-size="10.00" fill="#8a4b1c">fanout items invalid</text>
</g>
<!-- Skipped -->
<g id="node7" class="node">
<title>Skipped</title>
<path fill="#f5ebe1" stroke="#8a4b1c" d="M751.09,-52C751.09,-52 704.92,-52 704.92,-52 698.92,-52 692.92,-46 692.92,-40 692.92,-40 692.92,-28 692.92,-28 692.92,-22 698.92,-16 704.92,-16 704.92,-16 751.09,-16 751.09,-16 757.09,-16 763.09,-22 763.09,-28 763.09,-28 763.09,-40 763.09,-40 763.09,-46 757.09,-52 751.09,-52"/>
<text xml:space="preserve" text-anchor="middle" x="728.01" y="-28.98" font-family="Helvetica,sans-Serif" font-size="12.00" fill="#1d2329">Skipped</text>
</g>
<!-- Pending&#45;&gt;Skipped -->
<g id="edge4" class="edge">
<title>Pending&#45;&gt;Skipped</title>
<path fill="none" stroke="#8a4b1c" d="M377.87,-242.43C514.52,-241.89 997.82,-237.38 1055.01,-200.5 1106.13,-167.53 1154.63,-122.28 1114.01,-77 1091.54,-51.96 869.45,-40.43 772.68,-36.57"/>
<polygon fill="#8a4b1c" stroke="#8a4b1c" points="773.06,-33.78 764.96,-36.27 772.84,-39.38 773.06,-33.78"/>
<text xml:space="preserve" text-anchor="middle" x="1152.76" y="-131.38" font-family="Helvetica,sans-Serif" font-size="10.00" fill="#8a4b1c">unrunnable</text>
</g>
<!-- Blocked -->
<g id="node9" class="node">
<title>Blocked</title>
<path fill="#f5ebe1" stroke="#8a4b1c" d="M633.72,-153.25C633.72,-153.25 588.3,-153.25 588.3,-153.25 582.3,-153.25 576.3,-147.25 576.3,-141.25 576.3,-141.25 576.3,-129.25 576.3,-129.25 576.3,-123.25 582.3,-117.25 588.3,-117.25 588.3,-117.25 633.72,-117.25 633.72,-117.25 639.72,-117.25 645.72,-123.25 645.72,-129.25 645.72,-129.25 645.72,-141.25 645.72,-141.25 645.72,-147.25 639.72,-153.25 633.72,-153.25"/>
<text xml:space="preserve" text-anchor="middle" x="611.01" y="-130.22" font-family="Helvetica,sans-Serif" font-size="12.00" fill="#1d2329">Blocked</text>
</g>
<!-- Pending&#45;&gt;Blocked -->
<g id="edge5" class="edge">
<title>Pending&#45;&gt;Blocked</title>
<path fill="none" stroke="#8a4b1c" d="M377.86,-242.34C489.96,-241.48 828.33,-235.93 861.01,-200.5 864.4,-196.82 864.47,-192.86 861.01,-189.25 845.91,-173.53 685.34,-189.09 665.01,-181.25 653.15,-176.68 642,-168.38 632.94,-160.14"/>
<polygon fill="#8a4b1c" stroke="#8a4b1c" points="634.96,-158.19 627.25,-154.67 631.08,-162.23 634.96,-158.19"/>
<text xml:space="preserve" text-anchor="middle" x="917.95" y="-191" font-family="Helvetica,sans-Serif" font-size="10.00" fill="#8a4b1c">dependency did not pass</text>
</g>
<!-- Pending&#45;&gt;Blocked -->
<g id="edge6" class="edge">
<title>Pending&#45;&gt;Blocked</title>
<path fill="none" stroke="#8a4b1c" d="M343.45,-225.14C345.46,-212.98 350.22,-197.5 361.51,-189.25 378.07,-177.14 526.56,-187.79 546.01,-181.25 559.96,-176.56 573.63,-167.9 584.8,-159.42"/>
<polygon fill="#8a4b1c" stroke="#8a4b1c" points="586.4,-161.73 590.93,-154.57 582.92,-157.34 586.4,-161.73"/>
<text xml:space="preserve" text-anchor="middle" x="402.76" y="-191" font-family="Helvetica,sans-Serif" font-size="10.00" fill="#8a4b1c">required task failed</text>
</g>
<!-- Pending&#45;&gt;Blocked -->
<g id="edge7" class="edge">
<title>Pending&#45;&gt;Blocked</title>
<path fill="none" stroke="#8a4b1c" d="M377.92,-228.07C413.09,-214.13 464.31,-194.39 485.01,-189.25 511.54,-182.66 520.49,-191.09 546.01,-181.25 559.53,-176.03 572.96,-167.46 584.07,-159.19"/>
<polygon fill="#8a4b1c" stroke="#8a4b1c" points="585.55,-161.59 590.17,-154.48 582.13,-157.16 585.55,-161.59"/>
<text xml:space="preserve" text-anchor="middle" x="515.01" y="-191" font-family="Helvetica,sans-Serif" font-size="10.00" fill="#8a4b1c">budget ceiling</text>
</g>
<!-- Pending&#45;&gt;Blocked -->
<g id="edge8" class="edge">
<title>Pending&#45;&gt;Blocked</title>
<path fill="none" stroke="#8a4b1c" d="M377.72,-241.75C421.03,-239.44 495.04,-230.91 550.01,-200.5 567.38,-190.89 582.74,-174.63 593.71,-160.88"/>
<polygon fill="#8a4b1c" stroke="#8a4b1c" points="595.76,-162.8 598.41,-154.75 591.32,-159.39 595.76,-162.8"/>
<text xml:space="preserve" text-anchor="middle" x="602.99" y="-191" font-family="Helvetica,sans-Serif" font-size="10.00" fill="#8a4b1c">wall clock ceiling</text>
</g>
<!-- Pending&#45;&gt;Blocked -->
<g id="edge9" class="edge">
<title>Pending&#45;&gt;Blocked</title>
<path fill="none" stroke="#8a4b1c" d="M377.86,-243.2C451.15,-243.78 614.17,-240.43 649.01,-200.5 659.5,-188.47 651.1,-173.14 639.55,-160.47"/>
<polygon fill="#8a4b1c" stroke="#8a4b1c" points="641.59,-158.55 633.98,-154.82 637.6,-162.48 641.59,-158.55"/>
<text xml:space="preserve" text-anchor="middle" x="687.13" y="-191" font-family="Helvetica,sans-Serif" font-size="10.00" fill="#8a4b1c">staging refused</text>
</g>
<!-- Pending&#45;&gt;Blocked -->
<g id="edge10" class="edge">
<title>Pending&#45;&gt;Blocked</title>
<path fill="none" stroke="#8a4b1c" d="M377.87,-241.28C469.33,-237.81 705.76,-226.4 729.01,-200.5 732.35,-196.78 732.32,-193 729.01,-189.25 719.52,-178.5 678.15,-186.96 665.01,-181.25 653.52,-176.27 642.57,-168.05 633.57,-159.99"/>
<polygon fill="#8a4b1c" stroke="#8a4b1c" points="635.65,-158.1 627.9,-154.67 631.81,-162.19 635.65,-158.1"/>
<text xml:space="preserve" text-anchor="middle" x="755.12" y="-191" font-family="Helvetica,sans-Serif" font-size="10.00" fill="#8a4b1c">plan halted</text>
</g>
<!-- Truncated -->
<g id="node10" class="node">
<title>Truncated</title>
<path fill="#f5ebe1" stroke="#8a4b1c" d="M750.59,-153.25C750.59,-153.25 695.42,-153.25 695.42,-153.25 689.42,-153.25 683.42,-147.25 683.42,-141.25 683.42,-141.25 683.42,-129.25 683.42,-129.25 683.42,-123.25 689.42,-117.25 695.42,-117.25 695.42,-117.25 750.59,-117.25 750.59,-117.25 756.59,-117.25 762.59,-123.25 762.59,-129.25 762.59,-129.25 762.59,-141.25 762.59,-141.25 762.59,-147.25 756.59,-153.25 750.59,-153.25"/>
<text xml:space="preserve" text-anchor="middle" x="723.01" y="-130.22" font-family="Helvetica,sans-Serif" font-size="12.00" fill="#1d2329">Truncated</text>
</g>
<!-- Pending&#45;&gt;Truncated -->
<g id="edge11" class="edge">
<title>Pending&#45;&gt;Truncated</title>
<path fill="none" stroke="#8a4b1c" d="M377.77,-242.93C506.33,-244.09 939.64,-244.68 981.01,-200.5 1010.89,-168.58 855.25,-148.72 772.31,-140.55"/>
<polygon fill="#8a4b1c" stroke="#8a4b1c" points="772.8,-137.78 764.56,-139.8 772.26,-143.36 772.8,-137.78"/>
<text xml:space="preserve" text-anchor="middle" x="1015.5" y="-191" font-family="Helvetica,sans-Serif" font-size="10.00" fill="#8a4b1c">plan truncated</text>
</g>
<!-- Running&#45;&gt;Running -->
<g id="edge16" class="edge">
<title>Running&#45;&gt;Running</title>
<path fill="none" stroke="#55606a" d="M291.23,-144.77C309.96,-146.23 326.84,-143.06 326.84,-135.25 326.84,-128.78 315.26,-125.49 300.65,-125.39"/>
<polygon fill="#55606a" stroke="#55606a" points="300.63,-122.58 292.74,-125.67 300.84,-128.18 300.63,-122.58"/>
<text xml:space="preserve" text-anchor="middle" x="360.97" y="-131.38" font-family="Helvetica,sans-Serif" font-size="10.00" fill="#55606a">transport retried</text>
</g>
<!-- Pass -->
<g id="node5" class="node">
<title>Pass</title>
<path fill="#f5ebe1" stroke="#8a4b1c" d="M443.01,-52C443.01,-52 413.01,-52 413.01,-52 407.01,-52 401.01,-46 401.01,-40 401.01,-40 401.01,-28 401.01,-28 401.01,-22 407.01,-16 413.01,-16 413.01,-16 443.01,-16 443.01,-16 449.01,-16 455.01,-22 455.01,-28 455.01,-28 455.01,-40 455.01,-40 455.01,-46 449.01,-52 443.01,-52"/>
<text xml:space="preserve" text-anchor="middle" x="428.01" y="-28.98" font-family="Helvetica,sans-Serif" font-size="12.00" fill="#1d2329">Pass</text>
</g>
<!-- Running&#45;&gt;Pass -->
<g id="edge13" class="edge">
<title>Running&#45;&gt;Pass</title>
<path fill="none" stroke="#55606a" d="M240.66,-116.99C232.33,-104.78 225.16,-88.59 234.51,-77 253.81,-53.05 340.69,-42.06 391.23,-37.62"/>
<polygon fill="#55606a" stroke="#55606a" points="391.28,-40.42 399.01,-36.96 390.81,-34.84 391.28,-40.42"/>
<text xml:space="preserve" text-anchor="middle" x="250.26" y="-78.75" font-family="Helvetica,sans-Serif" font-size="10.00" fill="#55606a">passed</text>
</g>
<!-- Running&#45;&gt;Fail -->
<g id="edge14" class="edge">
<title>Running&#45;&gt;Fail</title>
<path fill="none" stroke="#8a4b1c" d="M291.22,-125.01C316.96,-118.71 352.43,-110.57 384.01,-105.25 450.17,-94.1 470.1,-108.69 534.01,-88.25 556.36,-81.1 579.42,-68.51 597.34,-57.36"/>
<polygon fill="#8a4b1c" stroke="#8a4b1c" points="598.66,-59.84 603.91,-53.18 595.65,-55.11 598.66,-59.84"/>
<text xml:space="preserve" text-anchor="middle" x="573.46" y="-78.75" font-family="Helvetica,sans-Serif" font-size="10.00" fill="#8a4b1c">failed</text>
</g>
<!-- Running&#45;&gt;Skipped -->
<g id="edge15" class="edge">
<title>Running&#45;&gt;Skipped</title>
<path fill="none" stroke="#8a4b1c" d="M291.17,-124.69C316.89,-118.24 352.35,-110.07 384.01,-105.25 476.58,-91.17 502.82,-109.55 594.01,-88.25 625.11,-80.98 658.49,-67.74 684.15,-56.27"/>
<polygon fill="#8a4b1c" stroke="#8a4b1c" points="685.04,-58.94 691.17,-53.09 682.73,-53.84 685.04,-58.94"/>
<text xml:space="preserve" text-anchor="middle" x="666.41" y="-78.75" font-family="Helvetica,sans-Serif" font-size="10.00" fill="#8a4b1c">skipped by task</text>
</g>
<!-- Transport -->
<g id="node8" class="node">
<title>Transport</title>
<path fill="#f5ebe1" stroke="#8a4b1c" d="M555.09,-52C555.09,-52 502.92,-52 502.92,-52 496.92,-52 490.92,-46 490.92,-40 490.92,-40 490.92,-28 490.92,-28 490.92,-22 496.92,-16 502.92,-16 502.92,-16 555.09,-16 555.09,-16 561.09,-16 567.09,-22 567.09,-28 567.09,-28 567.09,-40 567.09,-40 567.09,-46 561.09,-52 555.09,-52"/>
<text xml:space="preserve" text-anchor="middle" x="529.01" y="-28.98" font-family="Helvetica,sans-Serif" font-size="12.00" fill="#1d2329">Transport</text>
</g>
<!-- Running&#45;&gt;Transport -->
<g id="edge17" class="edge">
<title>Running&#45;&gt;Transport</title>
<path fill="none" stroke="#8a4b1c" d="M291.27,-125.32C323.61,-116.97 372.05,-103.52 413.01,-88.25 437.75,-79.02 464.6,-66.85 486.23,-56.47"/>
<polygon fill="#8a4b1c" stroke="#8a4b1c" points="487.2,-59.11 493.18,-53.1 484.76,-54.07 487.2,-59.11"/>
<text xml:space="preserve" text-anchor="middle" x="482.09" y="-78.75" font-family="Helvetica,sans-Serif" font-size="10.00" fill="#8a4b1c">transport exhausted</text>
</g>
<!-- Running&#45;&gt;Transport -->
<g id="edge18" class="edge">
<title>Running&#45;&gt;Transport</title>
<path fill="none" stroke="#8a4b1c" d="M264.79,-117.01C273.26,-103.8 286.77,-86.3 303.51,-77 370.07,-40.01 398.7,-68.66 473.01,-52 475.79,-51.38 478.64,-50.68 481.5,-49.95"/>
<polygon fill="#8a4b1c" stroke="#8a4b1c" points="482.2,-52.66 489.19,-47.86 480.73,-47.25 482.2,-52.66"/>
<text xml:space="preserve" text-anchor="middle" x="353.76" y="-78.75" font-family="Helvetica,sans-Serif" font-size="10.00" fill="#8a4b1c">transport cut by budget</text>
</g>
<!-- Fanout&#45;&gt;Pass -->
<g id="edge19" class="edge">
<title>Fanout&#45;&gt;Pass</title>
<path fill="none" stroke="#55606a" d="M111.18,-131.56C59.99,-126.44 -24.55,-112.42 7.51,-77 33.03,-48.8 293.14,-38.73 391.02,-35.92"/>
<polygon fill="#55606a" stroke="#55606a" points="391.09,-38.72 399.01,-35.7 390.93,-33.12 391.09,-38.72"/>
<text xml:space="preserve" text-anchor="middle" x="45.76" y="-78.75" font-family="Helvetica,sans-Serif" font-size="10.00" fill="#55606a">instances passed</text>
</g>
<!-- Fanout&#45;&gt;Fail -->
<g id="edge20" class="edge">
<title>Fanout&#45;&gt;Fail</title>
<path fill="none" stroke="#8a4b1c" d="M143,-112.83C142.05,-100.61 143.38,-85.99 152.76,-77 187.49,-43.71 537.95,-62 585.01,-52 587.95,-51.37 590.95,-50.59 593.94,-49.7"/>
<polygon fill="#8a4b1c" stroke="#8a4b1c" points="594.64,-52.42 601.36,-47.26 592.89,-47.1 594.64,-52.42"/>
<text xml:space="preserve" text-anchor="middle" x="186.88" y="-78.75" font-family="Helvetica,sans-Serif" font-size="10.00" fill="#8a4b1c">instances failed</text>
</g>
</g>
</svg>
